<?xml version="1.0" encoding="utf-8"?>
<!-- Generator: Adobe Illustrator 23.0.5, SVG Export Plug-In . SVG Version: 6.00 Build 0)  -->
<svg version="1.1" id="Warstwa_1" xmlns="http://www.w3.org/2000/svg" xmlns:xlink="http://www.w3.org/1999/xlink" x="0px" y="0px"
	 viewBox="0 0 1091 423.4" style="enable-background:new 0 0 1091 423.4;" xml:space="preserve">
<style type="text/css">
	.st0{fill-rule:evenodd;clip-rule:evenodd;fill:#636363;}
	.st1{fill-rule:evenodd;clip-rule:evenodd;fill:#FFFFFF;}
</style>
<path id="nabthat" class="st0" d="M85.1,164.3C56.3,164.6,35,176,23.9,200v-34.8H0.5V323h23.4v-84.6c2.7-30.6,21.9-51.3,53.1-51.6
	c27.9,0,44.7,16.8,44.7,45V323h23.4v-97.2C145.1,187.4,122.9,164.3,85.1,164.3z M303.8,165.2v33.6c-12-22.2-33.6-35.1-62.1-34.8
	c-44.4,0-75.3,33-75.3,79.8c0,47.1,31.2,80.4,76.2,80.4c27.9,0,49.5-12.9,61.2-34.8V323h23.4V165.2H303.8z M247.1,304.1
	c-33.6,0-57.3-24.9-57.3-59.7s23.7-60,57.3-60c31.2,0,54,22.2,56.7,54v12C301.1,282.2,278.3,304.1,247.1,304.1z M454.7,164.3
	c-27.6,0-49.2,12.9-60.9,34.8v-98.7h-23.4V323h23.4v-33.9c11.7,21.9,33.3,34.8,61.5,34.8c44.7,0,75.3-32.7,75.3-79.5
	C530.6,197.3,499.4,164.3,454.7,164.3z M450.5,303.2c-33.3,0-56.7-24.6-56.7-59.4c0-34.5,23.4-59.4,56.7-59.4
	c33,0,56.4,25.2,56.4,59.4C506.9,278.3,483.5,303.2,450.5,303.2z M621.8,294.2c-8.7,5.1-17.1,8.1-24.9,8.1
	c-13.8,0-21.3-10.5-21.3-33v-81h50.1V170h-50.1v-41.4h-23.1v144.6c0,33.9,16.8,50.7,40.8,50.7c11.7,0,24-4.2,35.4-11.7L621.8,294.2z
	 M735.2,164.3c-29.1,0.3-50.7,11.7-61.5,36.3V100.4h-23.4V323h23.4v-77.4c0-34.5,19.8-58.5,53.4-58.8c27.9,0,44.7,16.8,44.7,45V323
	h23.4v-97.2C795.2,187.4,773,164.3,735.2,164.3L735.2,164.3z M953.9,165.2v33.6c-12-22.2-33.6-35.1-62.1-34.8
	c-44.4,0-75.3,33-75.3,79.8c0,47.1,31.2,80.4,76.2,80.4c27.9,0,49.5-12.9,61.2-34.8V323h23.4V165.2L953.9,165.2L953.9,165.2z
	 M897.2,304.1c-33.6,0-57.3-24.9-57.3-59.7s23.7-60,57.3-60c31.2,0,54,22.2,56.7,54v12C951.2,282.2,928.4,304.1,897.2,304.1
	L897.2,304.1z M1084.1,294.2c-8.7,5.1-17.1,8.1-24.9,8.1c-13.8,0-21.3-10.5-21.3-33v-81h50.1V170h-50.1v-41.4h-23.1v144.6
	c0,33.9,16.8,50.7,40.8,50.7c11.7,0,24-4.2,35.4-11.7L1084.1,294.2z"/>
<path class="st1" d="M1072.9,113.9L1025,93.5l-48,20.4l48-113.9L1072.9,113.9z"/>
</svg>
